<svg width="882" height="360" viewBox="0 0 882 360" fill="none" xmlns="http://www.w3.org/2000/svg">
<path d="M178.396 229.711C178.396 229.711 178.25 229.77 178.062 229.669C177.494 229.33 177.115 229.09 176.734 228.853C150.449 212.526 124.163 196.199 97.877 179.872C109.176 158.796 120.468 137.717 131.776 116.648C141.873 97.8348 151.988 79.0336 162.092 60.2249C162.421 59.611 162.708 58.9705 162.987 58.1712C163.154 58 163.35 58 163.694 58C168.307 66.4291 172.742 74.8778 177.246 83.2835C190.442 107.912 203.667 132.523 216.886 157.437C211.808 167.235 206.722 176.736 201.64 186.239C193.89 200.729 186.144 215.22 178.396 229.711Z" fill="#D91578"/>
<path d="M97.7764 179.989C124.161 196.199 150.447 212.526 176.733 228.853C177.114 229.09 177.493 229.33 177.984 229.687C174.725 236.191 171.383 242.595 167.976 248.959C158.92 265.878 149.836 282.78 140.758 299.686C140.359 300.429 139.908 301.14 139.406 301.993C112.604 285.359 85.8903 268.781 59 252.092C71.9604 227.971 84.8188 204.039 97.7764 179.989Z" fill="#13A8F2"/>
<path d="M178.515 229.819C186.143 215.22 193.89 200.729 201.639 186.239C206.722 176.736 211.808 167.235 216.971 157.599C230.059 181.65 243.068 205.835 256.216 230.303C257.729 233.059 259.102 235.533 260.509 238.168C265.259 247.042 269.976 255.755 274.718 264.632C275.836 266.762 276.928 268.729 278.02 270.696C282.905 279.861 287.791 289.025 292.674 298.191C293.075 298.943 293.457 299.707 293.794 300.71C293.678 301.016 293.616 301.079 293.554 301.142C285.456 296.172 277.341 291.234 269.263 286.228C239.417 267.73 209.582 249.21 179.745 230.695C179.364 230.459 179.004 230.184 178.515 229.819Z" fill="#F7C413"/>
<g clip-path="url(#clip0_169_2)">
<path d="M353.638 259V95.5127H414.485V127.374H384.234V153.384H412.93V184.874H384.234V259H353.638ZM440.657 259V95.5127H470.043V259H440.657ZM499.845 259V95.5127H529.923V161.001L544.098 95.5127H574.695L557.668 170.383L578.238 259H546.691L530.096 179.857V259H499.845ZM601.212 259V95.5127H647.885C655.663 95.5127 661.541 97.4324 665.517 101.272C669.492 105.049 672.144 110.375 673.468 117.249C674.852 124.061 675.542 132.081 675.542 141.308C675.542 150.225 674.477 157.347 672.345 162.673C670.271 167.998 666.324 171.683 660.504 173.727C665.286 174.779 668.629 177.349 670.53 181.437C672.489 185.462 673.468 190.695 673.468 197.135V259H643.477V194.999C643.477 190.23 642.555 187.289 640.711 186.174C638.924 184.997 636.015 184.409 631.981 184.409V259H601.212ZM632.154 156.077H639.501C643.708 156.077 645.811 151.154 645.811 141.308C645.811 134.929 645.35 130.749 644.428 128.768C643.505 126.786 641.777 125.795 639.242 125.795H632.154V156.077ZM699.122 259L713.815 95.5127H765.414L779.848 259H751.066L748.906 232.619H730.583L728.68 259H699.122ZM732.744 206.517H746.572L739.917 123.38H738.534L732.744 206.517ZM806.884 259V95.5127H848.717C859.665 95.5127 867.905 98.7948 873.436 105.359C878.968 111.861 881.733 121.398 881.733 133.969V210.511C881.733 225.994 879.198 237.945 874.128 246.367C869.115 254.789 860.299 259 847.68 259H806.884ZM837.481 230.111H842.753C848.342 230.111 851.137 227.201 851.137 221.38V137.035C851.137 131.585 850.445 128.086 849.063 126.538C847.737 124.928 845 124.123 840.852 124.123H837.481V230.111Z" fill="#D91578"/>
</g>
<defs>
<clipPath id="clip0_169_2">
<rect width="529" height="164" fill="white" transform="translate(353 95)"/>
</clipPath>
</defs>
</svg>
